PathFileType	4	(X/Y/Z)	Patient4_TMGait_0pt6_01_right_33.trc.trc
DataRate	CameraRate	NumFrames	NumMarkers	Units	OrigDataRate	OrigDataStartFrame	OrigNumFrames
80.459770114943	80.459770114943	5	33	mm	80.459770114943	106	       141
Frame#	Time	Sacral			L.Shoulder			Chest			R.Shoulder			Neck			R.ASIS			L.ASIS			R.Thigh.Superior			R.Thigh.Lateral			R.Thigh.Inferior			R.Patella			L.Thigh.Superior			L.Thigh.Lateral			L.Thigh.Inferior			L.Patella			L.Shank.Superior			L.Shank.Lateral			L.Shank.Inferior			R.Shank.Superior			R.Shank.Lateral			R.Shank.Inferior			R.Heel			R.Midfoot.Superior			R.Midfoot.Lateral			R.Toe			L.Heel			L.Midfoot.Lateral			L.Midfoot.Superior			L.Toe			L.Elbow			L.Wrist			R.Elbow			R.Wrist			
		X1	Y1	Z1	X2	Y2	Z2	X3	Y3	Z3	X4	Y4	Z4	X5	Y5	Z5	X6	Y6	Z6	X7	Y7	Z7	X8	Y8	Z8	X9	Y9	Z9	X10	Y10	Z10	X11	Y11	Z11	X12	Y12	Z12	X13	Y13	Z13	X14	Y14	Z14	X15	Y15	Z15	X16	Y16	Z16	X17	Y17	Z17	X18	Y18	Z18	X19	Y19	Z19	X20	Y20	Z20	X21	Y21	Z21	X22	Y22	Z22	X23	Y23	Z23	X24	Y24	Z24	X25	Y25	Z25	X26	Y26	Z26	X27	Y27	Z27	X28	Y28	Z28	X29	Y29	Z29	X30	Y30	Z30	X31	Y31	Z31	X32	Y32	Z32	X33	Y33	Z33	

106	40.865000000000	734.057149683130	1014.319873333699	436.366495731611	919.749049643454	1444.745334991733	271.292726218985	1010.667749539152	1376.096904808478	438.517228684887	911.485056715155	1443.067990077937	605.864682807317	885.539150014835	1501.753439217331	424.151447488236	952.806056245200	954.107806925330	569.448368491313	960.091597035958	968.359806692212	295.876752730017	1048.997994630787	798.770774994927	531.124711225779	1023.882607859972	672.491568533631	600.314145097921	1113.336906875717	642.811145565204	516.974827662845	1145.812036230579	533.340753612939	536.654382592041	987.878127812127	743.974647603424	333.266370746779	889.035229653833	638.357816424794	266.873291090407	953.888229745997	552.958827942339	340.026135867265	944.976176245740	485.380786625393	351.881081718706	919.238288226952	415.753208116759	341.609439815951	831.490271454257	302.699814767377	286.266040310667	871.225465561626	192.609864752573	365.272451955368	1082.619531885706	448.830747807400	544.786287873818	972.911847712281	385.930465926178	606.481114955481	978.702627590354	276.767358094426	555.925765121779	793.298590601504	179.662709052858	530.385918009043	969.611506674819	149.276299588006	565.456190738828	862.884621267988	126.323315783486	599.081960085808	1053.799852392811	49.352697115100	584.028081900444	737.631841614252	37.948418988569	402.263702490956	814.655041196319	35.294091380543	324.013521166951	896.789008615105	96.225993624798	354.462934580073	1026.563927876147	43.420335309741	330.710798882545	976.541063950417	1105.827870961833	129.110031425394	1218.031838297139	1013.895572105604	152.082695795785	824.952472397857	1102.392511346763	711.896883320477	845.853428125106	840.618742542716	714.069465136652	
107	40.877428571429	733.858174695202	1014.113912968327	435.513166004563	921.176212956791	1444.679599588502	271.256063536207	1010.992125109185	1375.641791641322	438.879156256513	910.983083183439	1442.693556465300	605.678698185659	885.956804659326	1501.432891061699	424.140059423252	952.092814561894	954.149758704765	569.461519132923	960.084677486865	967.769025729129	296.003521364094	1048.764493843711	799.494620232657	531.489622321391	1023.941853659619	673.097883856172	600.921567300481	1113.310141324997	643.715378640288	517.671399883749	1147.045141779821	536.306041501081	537.523418184639	985.768533096825	742.745539237369	333.866731774040	886.222188665568	638.004652356142	266.517089907826	949.513634343063	551.950425687964	340.153406275572	939.866850053278	484.557298137448	351.825909949620	913.780334816616	415.069900224563	341.593898156176	825.487658118114	302.527187982894	286.198329729131	864.367652657058	192.237986565884	365.321971083855	1088.341479936431	450.020197945307	545.622332038688	983.282033041307	380.529219606956	607.771825688072	995.529296826475	272.052676533581	556.819845207281	816.619801208934	163.540501919797	531.809369977753	994.359336030775	144.436188624942	566.239998828856	889.603074909512	114.928853364931	600.430545358191	1084.728995319657	50.188833417627	584.715729588782	730.164210231957	37.973861109780	402.194796297766	807.149006107459	35.275749601846	324.009593829789	889.318907579692	96.158243640485	354.496749312114	1019.092871389472	43.268006232572	330.705980547377	980.296266500775	1106.579535208565	129.063731491235	1225.083837992428	1025.107889247278	153.290675395401	818.027485681346	1104.132275069964	711.267119061634	830.566163721738	842.131947880584	713.091546104973	
108	40.889857142857	733.742444537444	1013.770727067306	434.818194704132	922.543468941561	1444.422475201578	271.291837935732	1011.381225918036	1375.044083167131	439.260967893387	910.671476255246	1442.238541855893	605.563435284656	886.475686488144	1500.988601145050	424.179615094000	951.530730694533	953.986001191685	569.568469520904	960.144228730556	967.058412290519	296.176747963991	1048.162673601836	799.378562808032	532.056137212778	1023.031975591963	672.980330618484	601.732697494367	1112.275156413165	643.591592828516	518.658916781871	1147.036562340377	538.519133927371	538.560308445307	983.801659738246	741.471971415307	334.362765155823	883.541084911321	637.558230825907	266.236555723198	945.387470516859	550.901118721154	340.279080697226	935.032234430041	483.671439278645	351.795894074270	908.543322929254	414.316672784190	341.628170119449	819.642636506755	302.339539108933	286.180816269617	857.600710210971	191.823667400737	365.398185369129	1093.134550984126	450.749003682285	546.631137132673	993.504397736567	374.681566368872	609.411722226813	1012.389214766592	267.380135159717	557.930727280952	841.102205257575	147.353658522936	533.625735688158	1019.557756700288	140.135465325615	567.179459297238	917.382388707922	103.897130161876	602.042079262940	1116.001276492521	52.223133117738	585.396431390013	722.708950356464	38.015760112097	402.132762160284	799.652338740425	35.266311166134	324.014156158964	881.864936018448	96.079305964450	354.547305246890	1011.628856984245	43.089524062414	330.704572516408	983.864896305200	1107.047538095879	129.204198372776	1231.342631019511	1035.641357017587	154.688684164945	811.299825819549	1105.962934185854	710.764725096187	816.627075621275	844.046467244842	712.054900871700	
109	40.902285714286	733.727721045184	1013.310395800593	434.288728767929	923.838339505483	1443.991930870661	271.395623204991	1011.834407969647	1374.330942192059	439.658447124368	910.549900255403	1441.720994124408	605.519273251232	887.088644518088	1500.439018221478	424.264661225601	951.133885855101	953.639108158073	569.778729004100	960.288516519561	966.246745931831	296.403916712820	1047.184786533675	798.428977744299	532.822681013256	1021.158486270708	672.161710121382	602.747951279723	1110.231328761959	642.471211599190	519.905543535876	1145.815465904087	539.992880152750	539.697976214625	981.989687602066	740.158815095930	334.792200665598	880.995843228167	637.023787205705	266.059326011915	941.508400165830	549.814079806598	340.433713737999	930.462648569306	482.721324790544	351.822787037209	903.526308992720	413.504469929134	341.726633611503	813.955074668021	302.145502852642	286.223829675713	850.924490883099	191.375347873767	365.505396138841	1096.961492847452	451.074544767033	547.770677574758	1003.472300474430	368.594096959712	611.326893653810	1029.070211450261	262.967996838381	559.195654583862	866.473305658830	131.538385624993	535.719377758550	1044.865643787934	136.611334950690	568.197576504124	945.864296172386	93.573251745876	603.798401545742	1147.146163021093	55.625638412420	585.999117014498	715.262854167219	38.076166609085	402.082418296292	792.165601676336	35.268905272055	324.028305053247	874.428334362501	95.990806616589	354.613544152477	1004.168965786291	42.886302786675	330.706028491110	987.257591472460	1107.251419808410	129.521158136464	1236.848823795948	1045.378127929435	156.267678384993	804.879101758318	1107.843819349542	710.347517856238	804.008137664992	846.179010519728	711.070127035371	
110	40.914714285714	733.832652949707	1012.750199624708	433.933107368688	925.057696646342	1443.409280148785	271.563758686016	1012.353187980622	1373.528558959684	440.070010544073	910.615015167874	1441.155827863959	605.546405365588	887.785565583816	1499.800594894244	424.392877136534	950.913236428334	953.135604687244	570.102321907971	960.530701113810	965.349335113704	296.697062622884	1045.845080216024	796.687799664265	533.797796278034	1018.380856442714	670.698366072104	603.971441851386	1107.229151574451	640.433274876404	521.374850196513	1143.456767047622	540.768455296402	540.881159229468	980.334029204114	738.808592239488	335.206571207893	878.587616942808	636.408096572955	266.009387341533	937.865308022820	548.691928219111	340.648220252072	926.138765262024	481.707947593679	351.934156690797	898.720306742976	412.645415669830	341.900654773500	808.418101502792	301.953388814453	286.335731353262	844.334778633556	190.901751987114	365.646124385132	1099.810549617217	451.058714608101	549.008797219871	1013.031755753848	362.469200734943	613.421422691336	1045.311561424270	258.996381325746	560.547263577313	892.324923445531	116.505703142060	537.925118976508	1069.861531233848	134.015998511416	569.222739759806	974.551990802043	84.236754837709	605.562541021074	1177.617668434340	60.417217306169	586.492303856932	707.824204376295	38.156444692308	402.046801793971	784.689389010438	35.285958206742	324.053035283693	867.010241684261	95.894573869941	354.693548285196	996.710659586051	42.661026730386	330.709435414004	990.471833178921	1107.213728265146	130.005815011539	1241.647285569546	1054.215126451217	158.019186751275	798.882134891713	1109.719442604358	709.976080233732	792.699285679253	848.374293452152	710.225143471213	
